<?xml version="1.0" encoding="UTF-8" standalone="no"?>
<svg width="186px" height="159px" viewBox="0 0 186 159" version="1.1" xmlns="http://www.w3.org/2000/svg" xmlns:xlink="http://www.w3.org/1999/xlink">
    <!-- Generator: Sketch 3.8.2 (29753) - http://www.bohemiancoding.com/sketch -->
    <title>Group</title>
    <desc>Created with Sketch.</desc>
    <defs>
        <rect id="path-1" x="0" y="0" width="46" height="49"></rect>
        <rect id="path-3" x="0" y="18" width="34" height="41" rx="17"></rect>
        <mask id="mask-4" maskContentUnits="userSpaceOnUse" maskUnits="objectBoundingBox" x="0" y="0" width="34" height="41" fill="white">
            <use xlink:href="#path-3"></use>
        </mask>
        <rect id="path-5" x="0" y="0" width="46" height="49"></rect>
        <rect id="path-7" x="0" y="18" width="34" height="41" rx="17"></rect>
        <mask id="mask-8" maskContentUnits="userSpaceOnUse" maskUnits="objectBoundingBox" x="0" y="0" width="34" height="41" fill="white">
            <use xlink:href="#path-7"></use>
        </mask>
        <path d="M12.1768486,26 L45.99819,26 C48.2069088,26 50,24.2066675 50,21.9944797 L50,4.00552025 C50,1.78708529 48.2083286,0 45.99819,0 L10.00181,0 C7.79309123,0 6,1.7933325 6,4.00552025 L6,19.4784029 L2.07395843,25.6951961 C-0.284434136,29.4296545 1.06337515,30.99265 5.09905127,29.1796508 L12.1768486,26 Z" id="path-9"></path>
        <mask id="mask-10" maskContentUnits="userSpaceOnUse" maskUnits="objectBoundingBox" x="0" y="0" width="49.0867498" height="29.9350484" fill="white">
            <use xlink:href="#path-9"></use>
        </mask>
        <path d="M84.2635983,106 L118.08494,106 C120.293659,106 122.08675,104.206667 122.08675,101.99448 L122.08675,84.0055203 C122.08675,81.7870853 120.295078,80 118.08494,80 L82.0885597,80 C79.879841,80 78.0867498,81.7933325 78.0867498,84.0055203 L78.0867498,99.4784029 L74.1607082,105.695196 C71.8023156,109.429655 73.1501249,110.99265 77.185801,109.179651 L84.2635983,106 Z" id="path-11"></path>
        <mask id="mask-12" maskContentUnits="userSpaceOnUse" maskUnits="objectBoundingBox" x="0" y="0" width="49.0867498" height="29.9350484" fill="white">
            <use xlink:href="#path-11"></use>
        </mask>
    </defs>
    <g id="Page-1" stroke="none" stroke-width="1" fill="none" fill-rule="evenodd">
        <g id="HI-FI-Notarize-Landing-Page-1280" transform="translate(-546.000000, -936.000000)">
            <g id="Group-18" transform="translate(516.000000, 937.000000)">
                <g id="Group" transform="translate(30.000000, 0.000000)">
                    <g id="Group-5" transform="translate(15.000000, 0.000000)" stroke-width="2">
                        <g id="Group-4" opacity="0.403801306" stroke="#C4E1F8" stroke-linecap="round">
                            <path d="M141.0797,35.5747727 C129.9127,18.2772468 112.1747,5.78045455 91.4867,1.77695455 C86.8367,0.876753247 82.0387,0.405753247 77.1317,0.405753247 C70.4087,0.405753247 63.8887,1.28964286 57.6767,2.95037662" id="Stroke-32"></path>
                            <path d="M77.132,156.386273 C86.157,156.386273 94.818,154.792825 102.857,151.866916 C127.2,143.00763 145.851,121.92987 151.703,95.8780649" id="Stroke-34"></path>
                            <path d="M12.1146,37.2793442 C4.8356,49.2164416 0.6316,63.3056623 0.6316,78.396013 C0.6316,101.850182 10.7876,122.887162 26.8606,137.184357" id="Stroke-36"></path>
                        </g>
                        <g id="Group-4" opacity="0.542327425" transform="translate(68.481499, 84.219494) rotate(36.000000) translate(-68.481499, -84.219494) translate(28.981499, 49.719494)" stroke="#C4E1F8" stroke-linecap="round">
                            <path d="M44.1479211,68.973974 C49.3135461,68.973974 54.2708289,68.0634323 58.8720987,66.3914842 C66.8628125,63.4881538 73.7819769,58.2884074 78.8622845,51.5731058" id="Stroke-34"></path>
                            <path d="M6.93401447,0.912871985 C2.76774474,7.7340705 0.361507895,15.7850538 0.361507895,24.4081113 C0.361507895,37.8104935 6.17448158,49.8316252 15.3741592,58.0014508" id="Stroke-36"></path>
                        </g>
                        <ellipse id="Oval-51" stroke="#C4E1F7" stroke-dasharray="6,6" cx="77.5" cy="77.9902597" rx="61.5" ry="62.6980519"></ellipse>
                    </g>
                    <g id="Group-2" transform="translate(0.000000, 12.000000)">
                        <path d="M82.5480772,66.8480302 L2.45234128,66.8480302 C1.09765394,66.8480302 0.000418487707,65.4640768 0.000418487707,63.7553968 L0.000418487707,8.09263346 C0.000418487707,6.38395347 1.09765394,5 2.45234128,5 L82.5480772,5 C83.9027646,5 85,6.38395347 85,8.09263346 L85,63.7553968 C85,65.4640768 83.9027646,66.8480302 82.5480772,66.8480302" id="Fill-17" fill="#EAEFF4" style="mix-blend-mode: multiply;"></path>
                        <path d="M7.48780681,61.415911 C6.13370149,61.415911 5.03693746,60.0440905 5.03693746,58.3503903 L5.03693746,3.17561665 C5.03693746,1.48191648 6.13370149,0.110095985 7.48780681,0.110095985 L87.5491306,0.110095985 C88.903236,0.110095985 90,1.48191648 90,3.17561665 L90,58.3503903 C90,60.0440905 88.903236,61.415911 87.5491306,61.415911 L7.48780681,61.415911 Z" id="Fill-17" fill="#EBF7FF"></path>
                        <path d="M7.48780681,61.415911 C6.13370149,61.415911 5.03693746,60.0440905 5.03693746,58.3503903 L5.03693746,3.17561665 C5.03693746,1.48191648 6.13370149,0.110095985 7.48780681,0.110095985 L87.5491306,0.110095985 C88.903236,0.110095985 90,1.48191648 90,3.17561665 L90,58.3503903 C90,60.0440905 88.903236,61.415911 87.5491306,61.415911 L7.48780681,61.415911 Z" id="Stroke-19" stroke="#2A86E1" stroke-width="2"></path>
                    </g>
                    <g id="Group-2-Copy" transform="translate(95.000000, 66.000000)">
                        <path d="M81.5769235,66.8480302 L2.42349499,66.8480302 C1.08474522,66.8480302 0.000418487707,65.4864534 0.000418487707,63.8054005 L0.000418487707,9.04262971 C0.000418487707,7.36157679 1.08474522,6 2.42349499,6 L81.5769235,6 C82.9156733,6 84,7.36157679 84,9.04262971 L84,63.8054005 C84,65.4864534 82.9156733,66.8480302 81.5769235,66.8480302" id="Fill-17" fill="#EAEFF4" style="mix-blend-mode: multiply;"></path>
                        <path d="M7.48780681,61.415911 C6.13370149,61.415911 5.03693746,60.0440905 5.03693746,58.3503903 L5.03693746,3.17561665 C5.03693746,1.48191648 6.13370149,0.110095985 7.48780681,0.110095985 L87.5491306,0.110095985 C88.903236,0.110095985 90,1.48191648 90,3.17561665 L90,58.3503903 C90,60.0440905 88.903236,61.415911 87.5491306,61.415911 L7.48780681,61.415911 Z" id="Fill-17" fill="#EBF7FF"></path>
                        <path d="M7.48780681,61.415911 C6.13370149,61.415911 5.03693746,60.0440905 5.03693746,58.3503903 L5.03693746,3.17561665 C5.03693746,1.48191648 6.13370149,0.110095985 7.48780681,0.110095985 L87.5491306,0.110095985 C88.903236,0.110095985 90,1.48191648 90,3.17561665 L90,58.3503903 C90,60.0440905 88.903236,61.415911 87.5491306,61.415911 L7.48780681,61.415911 Z" id="Stroke-19" stroke="#2A86E1" stroke-width="2"></path>
                    </g>
                    <circle id="Oval-235" fill="#2A86E1" cx="12" cy="16" r="1"></circle>
                    <circle id="Oval-235-Copy" fill="#2A86E1" cx="107" cy="70" r="1"></circle>
                    <circle id="Oval-235" fill="#2A86E1" cx="16" cy="16" r="1"></circle>
                    <circle id="Oval-235-Copy-2" fill="#2A86E1" cx="111" cy="70" r="1"></circle>
                    <circle id="Oval-235" fill="#2A86E1" cx="20" cy="16" r="1"></circle>
                    <circle id="Oval-235-Copy-3" fill="#2A86E1" cx="115" cy="70" r="1"></circle>
                    <path d="M5.42086706,20 L89,20" id="Line-Copy" stroke="#2A86E1" stroke-width="2" stroke-linecap="square"></path>
                    <path d="M100.420867,74 L184,74" id="Line-Copy-2" stroke="#2A86E1" stroke-width="2" stroke-linecap="square"></path>
                    <g id="Group-11" transform="translate(28.000000, 24.000000)">
                        <mask id="mask-2" fill="white">
                            <use xlink:href="#path-1"></use>
                        </mask>
                        <g id="Mask"></g>
                        <g mask="url(#mask-2)">
                            <g transform="translate(3.000000, 6.000000)">
                                <use id="Rectangle-677" stroke="#2A86E1" mask="url(#mask-4)" stroke-width="4" fill="#FFFFFF" xlink:href="#path-3"></use>
                                <g id="Group-7" stroke="none" stroke-width="1" fill="none" transform="translate(6.000000, 21.000000)" stroke-linecap="round" stroke-linejoin="round">
                                    <path d="M21.5408938,1.58220147 L16.7861252,6.84392623 L11.4605369,1.28489237 L17.6132568,0 C18.9944923,0.365819458 20.3101021,0.900975839 21.5408938,1.58220147 Z" id="Combined-Shape" stroke="#2A86E1" stroke-width="2" fill="#FFFFFF"></path>
                                    <path d="M0.911658654,2.66130299 L4.91863726,6.84392623 L9.67340577,1.58220147 C8.44261413,0.900975839 7.12700435,0.365819458 5.74576887,0 L0.911658654,1.00952284 L0.911658654,2.66130299 Z" id="Combined-Shape" stroke="#2A86E1" stroke-width="2" fill="#FFFFFF" transform="translate(5.292532, 3.421963) scale(-1, 1) translate(-5.292532, -3.421963) "></path>
                                    <polygon id="Fill-4" stroke="#2A86E1" stroke-width="2" fill="#FFFFFF" points="11.054687 2.63721955 7.50470753 21.1679787 11.054687 24.8746476 14.6046666 21.1679787"></polygon>
                                </g>
                                <g id="Group-10" stroke="none" stroke-width="1" fill="none" transform="translate(2.000000, 0.000000)">
                                    <ellipse id="Oval-234" stroke="#2A86E1" stroke-width="2" cx="14.801232" cy="11.7824018" rx="11.2081831" ry="11.2081831"></ellipse>
                                    <path d="M26.9670311,16.2482807 C26.7301949,16.2482807 26.5529599,16.1885785 26.2565225,16.1288763 L25.723249,15.951341 L25.5444455,16.4855182 C23.826991,20.7589361 19.7380376,23.5492266 15.1158106,23.5492266 C10.4951521,23.5492266 6.40619873,20.7589361 4.6887442,16.4855182 L4.50994072,15.951341 L3.97666716,16.1288763 C3.73983097,16.1885785 3.50299477,16.2482807 3.26615857,16.2482807 C2.02237643,16.2482807 0.955829327,15.2396283 0.955829327,13.9340363 C0.955829327,12.6284443 2.02237643,11.6182209 3.20655741,11.6182209 L3.6802298,11.6182209 C6.4657999,10.9065083 9.0725665,9.30397658 10.9688245,7.16726763 C13.5755911,10.5498664 17.5453422,12.5687422 21.8115306,12.5687422 C23.4709524,12.5687422 25.0707731,12.2718025 26.6109926,11.6779231 L26.8478288,11.6779231 L26.90743,11.6779231 C28.2108133,11.6779231 29.2193277,12.7462775 29.2193277,13.9921674 C29.2193277,15.2396283 28.2704144,16.2482807 26.9670311,16.2482807" id="Stroke-23" stroke="#2A86E1" stroke-width="2" fill="#FFFFFF"></path>
                                </g>
                            </g>
                        </g>
                        <path d="M16,13.5 L16,8.5" id="Line" stroke="#2A86E1" stroke-width="2" stroke-linecap="square" mask="url(#mask-2)"></path>
                    </g>
                    <g id="Group-11-Copy" transform="translate(124.000000, 78.000000)">
                        <mask id="mask-6" fill="white">
                            <use xlink:href="#path-5"></use>
                        </mask>
                        <g id="Mask"></g>
                        <g id="Group-11" mask="url(#mask-6)">
                            <g transform="translate(3.000000, 6.000000)">
                                <path d="M27.7911297,10 L17,13.2 L6.11111111,10 C6.11111111,11.7687111 6.51434568,19.6 3,19.6 C3,27.5528889 9.26802469,34 17,34 C24.7319753,34 31,27.5528889 31,19.6 C27.4856543,19.6 27.7911297,11.7687111 27.7911297,10 L27.1359344,13.6839337" id="Fill-24-Copy" stroke="#2A86E1" stroke-width="2" fill="#EBF7FF"></path>
                                <use id="Rectangle-677" stroke="#2A86E1" mask="url(#mask-8)" stroke-width="4" fill="#FFFFFF" xlink:href="#path-7"></use>
                                <g id="Group-10" stroke="none" stroke-width="1" fill="none" transform="translate(2.000000, 0.000000)">
                                    <ellipse id="Oval-234" stroke="#2A86E1" stroke-width="2" fill="#EBF7FF" cx="14.801232" cy="11.7824018" rx="11.2081831" ry="11.2081831"></ellipse>
                                    <path d="M26.9670311,16.2482807 C26.7301949,16.2482807 26.5529599,16.1885785 26.2565225,16.1288763 L25.723249,15.951341 L25.5444455,16.4855182 C23.826991,20.7589361 19.7380376,23.5492266 15.1158106,23.5492266 C10.4951521,23.5492266 6.40619873,20.7589361 4.6887442,16.4855182 L4.50994072,15.951341 L3.97666716,16.1288763 C3.73983097,16.1885785 3.50299477,16.2482807 3.26615857,16.2482807 C2.02237643,16.2482807 0.955829327,15.2396283 0.955829327,13.9340363 C0.955829327,12.6284443 2.02237643,11.6182209 3.20655741,11.6182209 L3.6802298,11.6182209 C6.4657999,10.9065083 9.0725665,9.30397658 10.9688245,7.16726763 C13.5755911,10.5498664 17.5453422,12.5687422 21.8115306,12.5687422 C23.4709524,12.5687422 25.0707731,12.2718025 26.6109926,11.6779231 L26.8478288,11.6779231 L26.90743,11.6779231 C28.2108133,11.6779231 29.2193277,12.7462775 29.2193277,13.9921674 C29.2193277,15.2396283 28.2704144,16.2482807 26.9670311,16.2482807" id="Stroke-23" stroke="#2A86E1" stroke-width="2" fill="#FFFFFF"></path>
                                </g>
                            </g>
                        </g>
                        <polyline id="Path-1318" stroke="#2A86E1" stroke-width="2" stroke-linejoin="round" mask="url(#mask-6)" points="10 28.6925603 19.9617672 38.3164062 30.2319299 28.0462436"></polyline>
                        <path d="M16,13.5 L16,8.5" id="Line" stroke="#2A86E1" stroke-width="2" stroke-linecap="square" mask="url(#mask-6)"></path>
                    </g>
                    <rect id="Rectangle-677-Copy" stroke="#2A86E1" stroke-width="2" fill="#FFFDFD" x="165" y="113" width="16" height="10" rx="1"></rect>
                    <rect id="Rectangle-677-Copy-2" stroke="#2A86E1" stroke-width="2" fill="#FFFDFD" x="10" y="59" width="16" height="10" rx="1"></rect>
                    <g id="Group-15" transform="translate(66.000000, 25.000000)" stroke="#2A86E1">
                        <use id="Combined-Shape" mask="url(#mask-10)" stroke-width="4" stroke-linejoin="round" fill="#FFFFFF" xlink:href="#path-9"></use>
                        <path d="M13.5,7 L37,7" id="Line" stroke-width="2" stroke-linecap="round"></path>
                        <path d="M13.5,11 L35,11" id="Line-Copy-3" stroke-width="2" stroke-linecap="round"></path>
                        <path d="M13.5,15 L39,15" id="Line-Copy-4" stroke-width="2" stroke-linecap="round"></path>
                        <path d="M13.5,19 L33,19" id="Line-Copy-5" stroke-width="2" stroke-linecap="round"></path>
                    </g>
                    <use id="Combined-Shape" stroke="#2A86E1" mask="url(#mask-12)" stroke-width="4" stroke-linejoin="round" fill="#FFFFFF" transform="translate(97.543375, 94.967524) scale(-1, 1) translate(-97.543375, -94.967524) " xlink:href="#path-11"></use>
                    <polyline id="Path-1635" stroke="#2A86E1" stroke-width="2" stroke-linecap="round" points="87 94.4892578 91.3476562 97.75 99.5976562 87"></polyline>
                </g>
            </g>
        </g>
    </g>
</svg>