<?xml version="1.0" encoding="UTF-8" standalone="no"?>
<svg width="153px" height="158px" viewBox="0 0 153 158" version="1.1" xmlns="http://www.w3.org/2000/svg" xmlns:xlink="http://www.w3.org/1999/xlink">
    <!-- Generator: Sketch 3.8.3 (29802) - http://www.bohemiancoding.com/sketch -->
    <title>how-3</title>
    <desc>Created with Sketch.</desc>
    <defs>
        <polygon id="path-1" points="1.88071429 8 41.673992 8 42.673992 0.96 0.88071429 0.96"></polygon>
        <path d="M22.999182,10.7325973 C23.0751406,4.80556379 17.8508783,0 11.5,0 C5.1491217,0 -0.0751406,4.80556379 0.000818,10.7325973 C0.0738947,16.4412242 2.1282758,17.0805937 4.0556475,21.8295488 L5.2868352,31.4950208 L18.2553732,31.4950208 L19.2381002,21.1350116 C21.074898,17.0003123 22.9296048,16.1517994 22.999182,10.7325973" id="path-3"></path>
        <path d="M0.65150024,16.64 L44.9032061,16.64 L44.9032061,3.5656618 C44.9032061,1.9056806 43.5546782,0.56 41.8963967,0.56 L3.65830956,0.56 C1.99769462,0.56 0.65150024,1.9033142 0.65150024,3.5656618 L0.65150024,16.64 L0.65150024,16.64 Z" id="path-5"></path>
    </defs>
    <g id="Page-1" stroke="none" stroke-width="1" fill="none" fill-rule="evenodd">
        <g id="how-3" transform="translate(0.000000, 1.000000)">
            <g id="Group-5">
                <g id="Group-4" opacity="0.403801306" stroke="#C4E1F8">
                    <path d="M141.0797,35.5747727 C129.9127,18.2772468 112.1747,5.78045455 91.4867,1.77695455 C86.8367,0.876753247 82.0387,0.405753247 77.1317,0.405753247 C70.4087,0.405753247 63.8887,1.28964286 57.6767,2.95037662" id="Stroke-32"></path>
                    <path d="M77.132,156.386273 C86.157,156.386273 94.818,154.792825 102.857,151.866916 C127.2,143.00763 145.851,121.92987 151.703,95.8780649" id="Stroke-34"></path>
                    <path d="M12.1146,37.2793442 C4.8356,49.2164416 0.6316,63.3056623 0.6316,78.396013 C0.6316,101.850182 10.7876,122.887162 26.8606,137.184357" id="Stroke-36"></path>
                </g>
                <g id="Group-4" opacity="0.542327425" transform="translate(68.481499, 84.219494) rotate(36.000000) translate(-68.481499, -84.219494) translate(28.981499, 49.719494)" stroke="#C4E1F8">
                    <path d="M44.1479211,68.973974 C49.3135461,68.973974 54.2708289,68.0634323 58.8720987,66.3914842 C66.8628125,63.4881538 73.7819769,58.2884074 78.8622845,51.5731058" id="Stroke-34"></path>
                    <path d="M6.93401447,0.912871985 C2.76774474,7.7340705 0.361507895,15.7850538 0.361507895,24.4081113 C0.361507895,37.8104935 6.17448158,49.8316252 15.3741592,58.0014508" id="Stroke-36"></path>
                </g>
                <ellipse id="Oval-51" stroke="#C4E1F7" stroke-dasharray="6,6" cx="77.5" cy="77.9902597" rx="61.5" ry="62.6980519"></ellipse>
            </g>
            <g id="Page-1" transform="translate(1.000000, 6.000000)">
                <g id="landing-3">
                    <g id="Page-1" transform="translate(35.000000, 0.000000)">
                        <polygon id="Stroke-1" fill="#DEECF6" style="mix-blend-mode: multiply;" points="69.5921348 5.19148936 0.736723158 5.19148936 0.736723158 118 84.291768 118 84.291768 20.5577067"></polygon>
                        <polygon id="Stroke-1" stroke="#2A86E1" stroke-width="2" fill="#FFFFFF" points="5.73672316 0.191489362 5.73672316 113 89.291768 113 89.291768 15.5577067 74.5921348 0.191489362"></polygon>
                        <polygon id="Path-2088" fill="#D2DDE7" points="73.51839 0.285117846 69.9335938 0 69.9335938 19.8526214 89.640196 19.8526214 89.640196 15.8476621"></polygon>
                        <polygon id="Stroke-1" stroke="#2A86E1" stroke-width="2" points="74.5921348 0.191489362 5.73672316 0.191489362 5.73672316 113 89.291768 113 89.291768 15.5577067"></polygon>
                        <polyline id="Stroke-3" stroke="#2A86E1" stroke-width="2" fill="#FFFFFF" points="73.4325347 0.794365957 73.4325347 16.4755574 89.0871979 16.4755574"></polyline>
                        <path d="M18.8210526,18.7446809 L41.4210526,18.7446809" id="Stroke-7" stroke="#2A86E1" stroke-width="2"></path>
                        <path d="M18.8210526,26.0425532 L75.9157895,26.0425532" id="Stroke-9" stroke="#2A86E1" stroke-width="2"></path>
                        <path d="M18.8210526,33.1914894 L72.3473684,33.1914894" id="Stroke-11" stroke="#2A86E1" stroke-width="2"></path>
                        <path d="M21,74 L74.5263158,74" id="Stroke-11-Copy" stroke="#2A86E1" stroke-width="2"></path>
                        <g id="Group-13" transform="translate(23.000000, 67.000000)" stroke="#2A86E1" stroke-width="2">
                            <path d="M0,0 L4.24264069,4.24264069" id="Line"></path>
                            <path d="M0,4.24264069 L4.24264069,0" id="Line"></path>
                        </g>
                        <path d="M33.4999001,65.5792747 C33.4999001,65.5792747 27.5409157,60.5109154 34.0233376,57.1749779 C40.5057594,53.8390404 41.1541969,61.9938255 41.1541969,62.5861107 C41.1541969,63.1783958 38.6200172,71.736013 35.6224586,72.6022239 C32.6249001,73.4684349 32.8426735,71.9532982 33.1205055,70.5031029 C33.3983376,69.0529075 40.8119118,64.9757591 43.6327126,64.6979271 C46.4535133,64.420095 47.7464821,64.661306 48.5804665,66.2775169 C49.4144508,67.8937279 48.9593727,69.8077904 47.8431618,70.1178489 C46.7269508,70.4279075 44.3172829,70.3722435 44.0999977,68.2365013 C43.8827126,66.1007591 44.6239235,66.2496849 45.8329079,65.661306 C47.0418922,65.0729271 48.8622047,66.161306 49.7611305,65.4801536 C50.6600563,64.7990013 50.5990211,63.5900169 50.006736,63.8400169 C49.4144508,64.0900169 48.7293922,64.7350364 50.0028297,66.7496849 C51.2762672,68.7643333 51.3363258,70.9928489 53.2542946,70.7750755 C55.1722633,70.5573021 59.2538063,67.3463646 60.3333961,62.7736107 C61.412986,58.2008568 60.0516579,54.4620872 59.616111,54.4620872 C59.1805641,54.4620872 57.7298805,55.239431 56.831443,58.1403099 C55.9330055,61.0411888 55.2152321,67.8058372 58.6805641,70.2472435 C62.1458961,72.6886497 68.5394508,59.1032005 68.0438454,56.81072 C67.5482399,54.5182396 67.2372047,52.4474388 65.4447243,55.630056 C63.6522438,58.8126732 60.3446266,67.3102318 62.4432594,70.02947 C64.5418922,72.7487083 69.3324196,69.2316185 71.7415993,64.9650169" id="Path-1297" stroke="#2A86E1" stroke-width="2" stroke-linecap="round"></path>
                    </g>
                    <g id="Group-14" transform="translate(0.000000, 56.000000)">
                        <g id="Group-3" transform="translate(3.422286, 26.540000)" fill="#FFFFFF">
                            <g id="mask-2">
                                <path d="M2.11511111,0.0501458635 C0.951777778,0.0501458635 0,1.08770496 0,2.35564433 L0,17.3417477 L46,17.3417477 L46,2.35564433 C46,1.08770496 45.0482222,0.0501458635 43.8848889,0.0501458635 L2.11511111,0.0501458635 L2.11511111,0.0501458635 L2.11511111,0.0501458635 Z M0,0.0501458635 L46,0.0501458635 L46,17.3417477 L0,17.3417477 L0,0.0501458635 L0,0.0501458635 L0,0.0501458635 Z" id="path-1"></path>
                            </g>
                        </g>
                        <path d="M13.9018313,4.91148807 C11.4830492,6.99783461 9.95954594,10.0620422 10.000818,13.4773752 C10.0738947,19.5314574 12.1282758,20.2095181 14.0556475,25.2458543 L15.0403523,33.4441107 L3.65830956,33.4441107 C1.99769462,33.4441107 0.651500235,34.7822369 0.651500235,36.4536034 L0.651500235,50.4971855 L2.54548701,50.4971855 L2.88071429,53 L42.673992,53 L43.0092193,50.4971855 L44.9032061,50.4971855 L44.9032061,36.4536034 C44.9032061,34.7915065 43.5546782,33.4441107 41.8963967,33.4441107 L28.4389249,33.4441107 L29.2381002,24.5092874 C31.074898,20.1243784 32.9296048,19.2245181 32.999182,13.4773752 C33.0400222,10.0977826 31.5486654,7.06200509 29.1738093,4.97730759 L29.219851,4.86174565 L29.0283701,4.85176498 C28.6482145,4.52909421 28.2464095,4.23038675 27.8255,3.95802494 L27.9553722,3.17986776 L26.8432966,3.3886129 C26.7077228,3.31864286 26.5705765,3.25124708 26.4319282,3.18649147 L26.3694649,1.83784589 L24.9563375,2.47149314 L24.5422448,0.90426547 L23.2970711,1.85524816 L22.5654108,0.4251913 L21.5509321,1.64642096 L20.5364533,0.4251913 L19.8047931,1.85524816 L18.5596193,0.90426547 L18.1455267,2.47149314 L16.7323992,1.83784589 L16.6721585,3.13850274 C16.5073024,3.21352363 16.3445225,3.29226036 16.1839353,3.37460387 L15.1464919,3.17986776 L15.2665278,3.89908866 C14.8096054,4.18868457 14.3746889,4.50912502 13.9649706,4.85742161 L13.8820131,4.86174565 L13.9018313,4.91148807 L13.9018313,4.91148807 Z" id="Combined-Shape" fill="#DEECF6" style="mix-blend-mode: multiply;"></path>
                        <g id="Fill-4-Clipped" transform="translate(5.000000, 41.000000)">
                            <mask id="mask-2" fill="white">
                                <use xlink:href="#path-1"></use>
                            </mask>
                            <g id="path-3"></g>
                            <g id="Fill-4" mask="url(#mask-2)" stroke-width="4" stroke="#2A86E1" fill="#EEF9FF">
                                <polygon id="path-3" points="1.88071429 8 41.673992 8 42.673992 0.96 0.88071429 0.96"></polygon>
                            </g>
                        </g>
                        <g id="Fill-1-Clipped" transform="translate(14.000000, 1.000000)">
                            <mask id="mask-4" fill="white">
                                <use xlink:href="#path-3"></use>
                            </mask>
                            <g id="path-5"></g>
                            <g id="Fill-1" mask="url(#mask-4)" stroke="#2A86E1" stroke-width="4" fill="#EEF9FF">
                                <path d="M22.999182,10.7325973 C23.0751406,4.80556379 17.8508783,0 11.5,0 C5.1491217,0 -0.0751406,4.80556379 0.000818,10.7325973 C0.0738947,16.4412242 2.1282758,17.0805937 4.0556475,21.8295488 L5.2868352,31.4950208 L18.2553732,31.4950208 L19.2381002,21.1350116 C21.074898,17.0003123 22.9296048,16.1517994 22.999182,10.7325973" id="path-5"></path>
                            </g>
                        </g>
                        <g id="Fill-4-Clipped" transform="translate(4.000000, 30.000000)">
                            <mask id="mask-6" fill="white">
                                <use xlink:href="#path-5"></use>
                            </mask>
                            <g id="path-7"></g>
                            <g id="Fill-4" mask="url(#mask-6)" stroke="#2A86E1" stroke-width="4" fill="#FFFFFF">
                                <path d="M0.65150024,16.64 L44.9032061,16.64 L44.9032061,3.5656618 C44.9032061,1.9056806 43.5546782,0.56 41.8963967,0.56 L3.65830956,0.56 C1.99769462,0.56 0.65150024,1.9033142 0.65150024,3.5656618 L0.65150024,16.64 L0.65150024,16.64 Z" id="path-7"></path>
                            </g>
                        </g>
                    </g>
                    <text id="N" stroke="#2A86E1" stroke-width="2" fill="#2A86E1" font-family="Helvetica" font-size="10" font-weight="normal">
                        <tspan x="22.15" y="98">N</tspan>
                    </text>
                </g>
            </g>
        </g>
    </g>
</svg>