<?xml version="1.0" encoding="UTF-8" standalone="no"?>
<svg width="154px" height="156px" viewBox="0 0 154 156" version="1.1" xmlns="http://www.w3.org/2000/svg" xmlns:xlink="http://www.w3.org/1999/xlink">
    <!-- Generator: Sketch 3.8.2 (29753) - http://www.bohemiancoding.com/sketch -->
    <title>Group 12</title>
    <desc>Created with Sketch.</desc>
    <defs>
        <polygon id="path-1" points="8.10080303 0.039164557 0.000106060605 0.039164557 0.000106060605 8.25741646 8.10080303 8.25741646"></polygon>
        <polygon id="path-3" points="8.45958485 0.039164557 0.358887879 0.039164557 0.358887879 8.25741646 8.45958485 8.25741646 8.45958485 0.039164557"></polygon>
        <polygon id="path-5" points="8.10080303 0.039164557 0.000106060605 0.039164557 0.000106060605 8.25741646 8.10080303 8.25741646"></polygon>
        <polygon id="path-7" points="8.45958485 0.039164557 0.358887879 0.039164557 0.358887879 8.25741646 8.45958485 8.25741646 8.45958485 0.039164557"></polygon>
    </defs>
    <g id="Page-1" stroke="none" stroke-width="1" fill="none" fill-rule="evenodd">
        <g id="HI-FI-Notarize-Landing-Page-1280" transform="translate(-235.000000, -937.000000)">
            <g id="Group-27" transform="translate(188.000000, 938.000000)">
                <g id="Group-12" transform="translate(48.000000, 0.000000)">
                    <g id="Group-6" stroke-width="2">
                        <g id="Group-5">
                            <g id="Group-4" opacity="0.403801306" stroke="#C4E1F8" stroke-linecap="round">
                                <path d="M141.0797,34.895 C129.9127,17.928 112.1747,5.67 91.4867,1.743 C86.8367,0.86 82.0387,0.398 77.1317,0.398 C70.4087,0.398 63.8887,1.265 57.6767,2.894" id="Stroke-32"></path>
                                <path d="M77.132,153.398 C86.157,153.398 94.818,151.835 102.857,148.965 C127.2,140.275 145.851,119.6 151.703,94.046" id="Stroke-34"></path>
                                <path d="M12.1146,36.567 C4.8356,48.276 0.6316,62.096 0.6316,76.898 C0.6316,99.904 10.7876,120.539 26.8606,134.563" id="Stroke-36"></path>
                            </g>
                            <g id="Group-4" opacity="0.542327425" transform="translate(68.386079, 82.739029) rotate(36.000000) translate(-68.386079, -82.739029) translate(28.886079, 48.739029)" stroke="#C4E1F8" stroke-linecap="round">
                                <path d="M44.1479211,67.656 C49.3135461,67.656 54.2708289,66.7628571 58.8720987,65.1228571 C66.8628125,62.2750043 73.7819769,57.1746162 78.8622845,50.5876324" id="Stroke-34"></path>
                                <path d="M6.93401447,0.895428571 C2.76774474,7.58628571 0.361507895,15.4834286 0.361507895,23.9417143 C0.361507895,37.088 6.17448158,48.8794286 15.3741592,56.8931429" id="Stroke-36"></path>
                            </g>
                            <circle id="Oval-51" stroke="#C4E1F7" stroke-dasharray="6,6" cx="77.5" cy="76.5" r="61.5"></circle>
                        </g>
                    </g>
                    <g id="Page-1" transform="translate(9.000000, 6.000000)">
                        <polygon id="Stroke-1" fill="#EAEFF4" style="mix-blend-mode: multiply;" points="69.5921348 5.19148936 0.736723158 5.19148936 0.736723158 118 84.291768 118 84.291768 20.5577067"></polygon>
                        <polygon id="Stroke-1" stroke="#2A86E1" stroke-width="2" fill="#FFFFFF" points="74.5921348 0.191489362 5.73672316 0.191489362 5.73672316 113 89.291768 113 89.291768 15.5577067"></polygon>
                        <polygon id="Path-2088" fill="#D2DDE7" points="73.51839 0.285117846 69.9335938 0 69.9335938 19.8526214 89.640196 19.8526214 89.640196 15.8476621"></polygon>
                        <polygon id="Stroke-1" stroke="#2A86E1" stroke-width="2" points="74.5921348 0.191489362 5.73672316 0.191489362 5.73672316 113 89.291768 113 89.291768 15.5577067"></polygon>
                        <polyline id="Stroke-3" stroke="#2A86E1" stroke-width="2" fill="#FFFFFF" points="73.4325347 0.794365957 73.4325347 16.4755574 89.0871979 16.4755574"></polyline>
                        <path d="M33.4911884,17.0709617 C33.4911884,21.1291745 30.2070516,24.4188766 26.1557042,24.4188766 C22.1055463,24.4188766 18.8214095,21.1291745 18.8214095,17.0709617 C18.8214095,13.0127489 22.1055463,9.72304681 26.1557042,9.72304681 C30.2070516,9.72304681 33.4911884,13.0127489 33.4911884,17.0709617 L33.4911884,17.0709617 Z" id="Stroke-5" stroke="#2A86E1" stroke-width="2" fill="#EAEFF4"></path>
                        <path d="M18.8210526,34.7446809 L41.4210526,34.7446809" id="Stroke-7" stroke="#2A86E1" stroke-width="2"></path>
                        <path d="M18.8210526,49.0425532 L75.9157895,49.0425532" id="Stroke-9" stroke="#2A86E1" stroke-width="2"></path>
                        <path d="M18.8210526,56.1914894 L72.3473684,56.1914894" id="Stroke-11" stroke="#2A86E1" stroke-width="2"></path>
                        <path d="M18.8210526,64.5319149 L75.9157895,64.5319149" id="Stroke-13" stroke="#2A86E1" stroke-width="2"></path>
                        <path d="M18.8210526,71.6808511 L56.8842105,71.6808511" id="Stroke-15" stroke="#2A86E1" stroke-width="2"></path>
                        <g id="Group-2" transform="translate(56.000000, 56.000000)">
                            <path d="M66.5926735,43.7854651 L1.97829788,43.7854651 C0.885452229,43.7854651 0.000296700178,42.900166 0.000296700178,41.8071432 L0.000296700178,6.20031538 C0.000296700178,5.10729249 0.885452229,4.22199342 1.97829788,4.22199342 L66.5926735,4.22199342 C67.6855192,4.22199342 68.5706747,5.10729249 68.5706747,6.20031538 L68.5706747,41.8071432 C68.5706747,42.900166 67.6855192,43.7854651 66.5926735,43.7854651" id="Fill-17" fill="#EAEFF4" style="mix-blend-mode: multiply;"></path>
                            <path d="M71.5814376,39.6345217 L6.96706193,39.6345217 C5.87421627,39.6345217 4.98906075,38.7492226 4.98906075,37.6561998 L4.98906075,2.04937198 C4.98906075,0.956349097 5.87421627,0.0710500201 6.96706193,0.0710500201 L71.5814376,0.0710500201 C72.6742832,0.0710500201 73.5594387,0.956349097 73.5594387,2.04937198 L73.5594387,37.6561998 C73.5594387,38.7492226 72.6742832,39.6345217 71.5814376,39.6345217" id="Fill-17" fill="#EEF9FF"></path>
                            <path d="M6.96706193,39.6345217 C5.87421627,39.6345217 4.98906075,38.7492226 4.98906075,37.6561998 L4.98906075,2.04937198 C4.98906075,0.956349097 5.87421627,0.0710500201 6.96706193,0.0710500201 L71.5814376,0.0710500201 C72.6742832,0.0710500201 73.5594387,0.956349097 73.5594387,2.04937198 L73.5594387,37.6561998 C73.5594387,38.7492226 72.6742832,39.6345217 71.5814376,39.6345217 L6.96706193,39.6345217 Z" id="Stroke-19" stroke="#2A86E1" stroke-width="2"></path>
                            <path d="M32.2981363,17.8273798 C31.7383619,14.0151534 28.449935,11.1386733 24.5265696,11.1386733 C20.6041933,11.1386733 17.3157663,14.0151534 16.755992,17.8273798 C15.6720473,17.9767432 14.8501878,18.9105111 14.8501878,20.0322197 C14.8501878,21.2647143 15.8213864,22.2370595 17.0546702,22.2370595 C17.1664272,22.2370595 17.2791733,22.2370595 17.3909304,22.1994714 C18.6608071,25.0393525 21.4260528,26.8327014 24.5265696,26.8327014 C27.6280755,26.8327014 30.3933211,25.0393525 31.6631979,22.1994714 C31.774955,22.1994714 31.887701,22.2370595 31.9994581,22.2370595 C33.2327418,22.2370595 34.2039404,21.2647143 34.2039404,20.0322197 C34.2039404,18.9105111 33.3820809,17.9767432 32.2981363,17.8273798 L32.2981363,17.8273798 Z M31.9994581,21.4892538 C31.850119,21.4892538 31.7383619,21.4516657 31.5514408,21.4140776 L31.2151806,21.3023024 L31.1024346,21.6386171 C30.0194789,24.329135 27.4411544,26.0858849 24.5265696,26.0858849 C21.6129739,26.0858849 19.0346493,24.329135 17.9516937,21.6386171 L17.8389476,21.3023024 L17.5026874,21.4140776 C17.3533483,21.4516657 17.2040092,21.4892538 17.0546702,21.4892538 C16.2703927,21.4892538 15.5978723,20.8542124 15.5978723,20.0322197 C15.5978723,19.2102269 16.2703927,18.5741964 17.0170881,18.5741964 L17.3157663,18.5741964 C19.0722314,18.1261065 20.7159503,17.1171623 21.9116521,15.7719033 C23.555371,17.9015669 26.0585315,19.1726388 28.7486132,19.1726388 C29.7949758,19.1726388 30.8037564,18.9856874 31.774955,18.6117845 L31.9242941,18.6117845 L31.9618761,18.6117845 C32.7837356,18.6117845 33.4196629,19.284414 33.4196629,20.0688186 C33.4196629,20.8542124 32.8213176,21.4892538 31.9994581,21.4892538 L31.9994581,21.4892538 Z M21.5753919,12.5205312 L21.5753919,14.9874987 C20.5666113,16.2199933 19.1098134,17.1923385 17.5402695,17.6780165 C17.9882867,15.3604124 19.5202486,13.4552883 21.5753919,12.5205312 L21.5753919,12.5205312 Z M31.5514408,17.9015669 C30.6544173,18.2378817 29.7573938,18.387245 28.7861952,18.387245 C26.2078706,18.387245 23.8174562,17.1547504 22.3596693,15.0616857 L22.3596693,12.2218046 C23.0321897,11.997265 23.7798742,11.8854898 24.5265696,11.8854898 C28.0394997,11.8854898 30.9906775,14.4266444 31.5514408,17.9015669 L31.5514408,17.9015669 Z M32.2981363,17.8273798 C31.7383619,14.0151534 28.449935,11.1386733 24.5265696,11.1386733 C20.6041933,11.1386733 17.3157663,14.0151534 16.755992,17.8273798 C15.6720473,17.9767432 14.8501878,18.9105111 14.8501878,20.0322197 C14.8501878,21.2647143 15.8213864,22.2370595 17.0546702,22.2370595 C17.1664272,22.2370595 17.2791733,22.2370595 17.3909304,22.1994714 C18.6608071,25.0393525 21.4260528,26.8327014 24.5265696,26.8327014 C27.6280755,26.8327014 30.3933211,25.0393525 31.6631979,22.1994714 C31.774955,22.1994714 31.887701,22.2370595 31.9994581,22.2370595 C33.2327418,22.2370595 34.2039404,21.2647143 34.2039404,20.0322197 C34.2039404,18.9105111 33.3820809,17.9767432 32.2981363,17.8273798 L32.2981363,17.8273798 Z" id="Stroke-23" stroke="#2A86E1" fill="#FFFFFF"></path>
                            <path d="M42.5707865,11.9405861 L63.3397989,11.9405861" id="Stroke-25" stroke="#2A86E1" stroke-width="2"></path>
                            <path d="M42.5707865,18.864713 L65.3178001,18.864713" id="Stroke-27" stroke="#2A86E1" stroke-width="2"></path>
                            <path d="M42.5707865,24.7996788 L58.394796,24.7996788" id="Stroke-29" stroke="#2A86E1" stroke-width="2"></path>
                        </g>
                    </g>
                    <g id="Page-1" opacity="0.303987873" transform="translate(44.000000, 106.000000)">
                        <g id="Group-3" transform="translate(0.000000, 0.391043)">
                            <mask id="mask-2" fill="white">
                                <use xlink:href="#path-1"></use>
                            </mask>
                            <g id="Clip-2"></g>
                            <path d="M7.85230303,1.88876456 L1.8229697,8.00532152 C1.49163636,8.3414481 0.954545455,8.3414481 0.623212121,8.00532152 L0.248606061,7.6252962 C-0.0827272727,7.28916962 -0.0827272727,6.74387848 0.248606061,6.4077519 L6.27751515,0.291194937 C6.60927273,-0.0449316456 7.14636364,-0.0449316456 7.47769697,0.291194937 L7.85230303,0.671650633 C8.18363636,1.00777722 8.18363636,1.55263797 7.85230303,1.88876456" id="Fill-1" fill="#2A86E1" mask="url(#mask-2)"></path>
                        </g>
                        <path d="M5.87406061,32.8330684 L5.87406061,1.55780253 C5.87406061,0.935043038 6.37169697,0.430207595 6.98557576,0.430207595 L6.98939394,0.430207595 C7.60327273,0.430207595 8.10090909,0.935043038 8.10090909,1.55780253 L8.10090909,32.8330684 C8.10090909,33.4558278 7.60327273,33.9606633 6.98939394,33.9606633 L6.98557576,33.9606633 C6.37169697,33.9606633 5.87406061,33.4558278 5.87406061,32.8330684" id="Fill-4" fill="#2A86E1"></path>
                        <g id="Group-8" transform="translate(5.515152, 0.391043)">
                            <mask id="mask-4" fill="white">
                                <use xlink:href="#path-3"></use>
                            </mask>
                            <g id="Clip-7"></g>
                            <path d="M0.607387879,1.88876456 L6.63672121,8.00532152 C6.96805455,8.3414481 7.50514545,8.3414481 7.83647879,8.00532152 L8.21108485,7.6252962 C8.54241818,7.28916962 8.54241818,6.74387848 8.21108485,6.4077519 L2.18217576,0.291194937 C1.85041818,-0.0449316456 1.31332727,-0.0449316456 0.981993939,0.291194937 L0.607387879,0.671650633 C0.276054545,1.00777722 0.276054545,1.55263797 0.607387879,1.88876456" id="Fill-6" fill="#2A86E1" mask="url(#mask-4)"></path>
                        </g>
                    </g>
                    <g id="Page-1" transform="translate(48.000000, 106.000000)">
                        <g id="Group-3" transform="translate(0.000000, 0.391043)">
                            <mask id="mask-6" fill="white">
                                <use xlink:href="#path-5"></use>
                            </mask>
                            <g id="Clip-2"></g>
                            <path d="M7.85230303,1.88876456 L1.8229697,8.00532152 C1.49163636,8.3414481 0.954545455,8.3414481 0.623212121,8.00532152 L0.248606061,7.6252962 C-0.0827272727,7.28916962 -0.0827272727,6.74387848 0.248606061,6.4077519 L6.27751515,0.291194937 C6.60927273,-0.0449316456 7.14636364,-0.0449316456 7.47769697,0.291194937 L7.85230303,0.671650633 C8.18363636,1.00777722 8.18363636,1.55263797 7.85230303,1.88876456" id="Fill-1" fill="#2A86E1" mask="url(#mask-6)"></path>
                        </g>
                        <path d="M5.87406061,32.8330684 L5.87406061,1.55780253 C5.87406061,0.935043038 6.37169697,0.430207595 6.98557576,0.430207595 L6.98939394,0.430207595 C7.60327273,0.430207595 8.10090909,0.935043038 8.10090909,1.55780253 L8.10090909,32.8330684 C8.10090909,33.4558278 7.60327273,33.9606633 6.98939394,33.9606633 L6.98557576,33.9606633 C6.37169697,33.9606633 5.87406061,33.4558278 5.87406061,32.8330684" id="Fill-4" fill="#2A86E1"></path>
                        <g id="Group-8" transform="translate(5.515152, 0.391043)">
                            <mask id="mask-8" fill="white">
                                <use xlink:href="#path-7"></use>
                            </mask>
                            <g id="Clip-7"></g>
                            <path d="M0.607387879,1.88876456 L6.63672121,8.00532152 C6.96805455,8.3414481 7.50514545,8.3414481 7.83647879,8.00532152 L8.21108485,7.6252962 C8.54241818,7.28916962 8.54241818,6.74387848 8.21108485,6.4077519 L2.18217576,0.291194937 C1.85041818,-0.0449316456 1.31332727,-0.0449316456 0.981993939,0.291194937 L0.607387879,0.671650633 C0.276054545,1.00777722 0.276054545,1.55263797 0.607387879,1.88876456" id="Fill-6" fill="#2A86E1" mask="url(#mask-8)"></path>
                        </g>
                    </g>
                </g>
            </g>
        </g>
    </g>
</svg>